<?xml version="1.0" standalone="no"?>
<!DOCTYPE svg PUBLIC "-//W3C//DTD SVG 20010904//EN"
 "http://www.w3.org/TR/2001/REC-SVG-20010904/DTD/svg10.dtd">
<svg version="1.0" xmlns="http://www.w3.org/2000/svg"
 width="700.000000pt" height="700.000000pt" viewBox="0 0 700.000000 700.000000"
 preserveAspectRatio="xMidYMid meet">
<metadata>
Created by potrace 1.14, written by Peter Selinger 2001-2017
</metadata>
<g transform="translate(0.000000,700.000000) scale(0.100000,-0.100000)"
fill="#000000" stroke="none">
<path d="M0 3500 l0 -3500 3500 0 3500 0 0 3500 0 3500 -3500 0 -3500 0 0
-3500z m1490 2846 c182 -8 188 -11 224 -125 20 -65 85 -332 100 -411 2 -14 9
-47 16 -75 15 -66 103 -479 115 -540 2 -11 6 -31 10 -45 3 -14 7 -34 9 -45 3
-11 11 -52 20 -90 8 -39 17 -82 20 -95 2 -14 21 -101 41 -195 20 -93 38 -181
41 -195 3 -14 9 -41 14 -60 5 -19 12 -51 15 -70 3 -19 10 -54 16 -78 5 -23 12
-59 15 -80 3 -20 8 -40 10 -43 2 -3 6 -21 9 -40 3 -19 10 -50 15 -69 5 -19 11
-46 14 -60 11 -61 100 -476 136 -640 21 -90 120 -545 125 -570 13 -66 49 -208
55 -219 6 -11 10 -10 18 5 10 19 49 161 58 214 3 14 12 54 20 90 9 36 18 79
21 95 2 17 9 48 15 70 5 22 12 51 15 64 5 29 75 360 138 651 24 113 46 216 49
230 2 14 18 88 35 165 17 77 65 302 106 500 42 198 79 369 81 380 2 11 6 31 9
45 2 14 34 160 69 325 36 165 67 311 70 325 34 169 109 488 122 515 20 43 34
55 76 63 32 7 887 7 893 0 13 -14 10 -107 -5 -178 -31 -142 -178 -749 -275
-1140 -41 -161 -57 -228 -60 -243 -2 -10 -7 -27 -10 -37 -3 -10 -8 -27 -10
-37 -2 -10 -19 -79 -39 -153 -19 -74 -60 -232 -90 -350 -30 -118 -73 -287 -96
-375 -22 -88 -48 -185 -56 -215 -9 -30 -18 -62 -20 -70 -11 -50 -69 -258 -90
-328 -25 -82 -81 -198 -156 -321 -21 -34 -38 -65 -38 -67 0 -2 -25 -48 -56
-102 -31 -53 -65 -111 -74 -128 -17 -29 -261 -451 -375 -649 -32 -55 -66 -113
-75 -130 -10 -16 -41 -70 -70 -120 -29 -49 -62 -106 -72 -125 -87 -153 -252
-437 -258 -445 -4 -5 -21 -35 -37 -65 -51 -97 -204 -352 -209 -348 -5 6 19 64
163 403 144 337 204 487 199 492 -2 2 -95 6 -207 8 -249 6 -313 11 -350 31
-57 29 -98 155 -248 745 -44 173 -98 386 -121 474 -23 88 -43 167 -45 175 -2
8 -10 40 -19 70 -14 54 -93 358 -207 800 -31 124 -74 288 -94 365 -20 77 -51
199 -70 270 -18 72 -61 238 -95 369 -34 132 -63 248 -65 259 -3 10 -7 27 -10
37 -3 10 -8 27 -10 37 -2 10 -29 117 -60 238 -92 358 -155 619 -157 652 0 5
-4 18 -9 30 -4 11 -11 45 -14 75 -11 93 15 105 239 107 72 1 131 3 132 4 3 3
276 -2 404 -7z m4910 -1042 c86 -13 99 -36 58 -103 -79 -132 -339 -508 -612
-886 -43 -59 -379 -523 -392 -540 -90 -122 -305 -423 -335 -468 -55 -85 -54
-89 93 -326 49 -79 109 -174 133 -210 23 -36 170 -266 325 -511 156 -245 312
-490 347 -545 606 -940 623 -969 623 -1046 0 -71 -47 -79 -425 -75 -457 5
-461 6 -546 114 -48 61 -276 398 -336 497 -11 19 -621 984 -756 1197 -82 128
-83 128 -207 0 -52 -53 -140 -151 -195 -216 -55 -65 -110 -130 -122 -145 l-23
-26 -1 -445 c-1 -466 -3 -601 -14 -770 -5 -93 -25 -183 -45 -203 -7 -8 -548
-10 -675 -3 -76 4 -148 16 -164 25 -30 19 -34 96 -38 741 l-5 655 99 168 c54
92 106 182 117 200 156 273 362 627 386 667 5 8 24 42 43 75 53 94 65 114 220
381 80 138 155 266 166 285 12 19 24 41 28 49 9 20 256 443 321 551 72 119 86
135 60 69 -12 -30 -25 -59 -30 -64 -4 -6 -8 -16 -8 -23 0 -7 -9 -32 -19 -56
-11 -23 -42 -98 -71 -167 -28 -69 -55 -134 -60 -145 -20 -45 -51 -117 -100
-235 -29 -69 -58 -138 -65 -155 -80 -184 -145 -390 -145 -457 0 -64 12 -56 57
40 62 130 180 326 348 577 88 132 162 245 164 250 2 6 7 12 10 15 7 6 40 54
286 420 315 467 521 755 578 809 51 46 92 50 502 46 209 -2 400 -7 425 -11z"/>
</g>
</svg>
