<?xml version="1.0" standalone="no"?>
<!DOCTYPE svg PUBLIC "-//W3C//DTD SVG 20010904//EN"
 "http://www.w3.org/TR/2001/REC-SVG-20010904/DTD/svg10.dtd">
<svg version="1.0" xmlns="http://www.w3.org/2000/svg"
 width="238.000000pt" height="238.000000pt" viewBox="0 0 238.000000 238.000000"
 preserveAspectRatio="xMidYMid meet">

<g transform="translate(0.000000,238.000000) scale(0.100000,-0.100000)"
fill="#000000" stroke="none">
<path d="M0 1190 l0 -1190 1190 0 1190 0 0 1190 0 1190 -1190 0 -1190 0 0
-1190z m570 956 c14 -18 23 -55 115 -491 125 -590 164 -767 169 -773 8 -8 10
0 101 428 47 223 103 486 124 585 22 99 42 194 46 212 3 17 12 37 19 43 9 7
67 10 167 8 l154 -3 3 -27 c3 -23 -242 -995 -268 -1063 -5 -14 -84 -153 -174
-308 -90 -155 -194 -335 -231 -400 -36 -64 -68 -117 -70 -117 -3 0 12 37 32
83 49 113 93 219 93 223 0 2 -42 4 -93 4 -77 0 -97 3 -109 18 -8 9 -32 82 -52
162 -20 80 -59 233 -87 340 -256 988 -273 1055 -266 1073 6 15 24 17 160 17
123 0 157 -3 167 -14z m1634 -361 c0 -11 -101 -159 -225 -330 -124 -170 -233
-321 -242 -335 -16 -25 -15 -28 56 -140 139 -219 360 -565 409 -640 56 -85 67
-118 47 -131 -24 -15 -266 -11 -297 5 -19 10 -85 108 -216 318 -104 166 -195
309 -201 316 -10 11 -27 -3 -89 -74 l-76 -89 0 -217 c0 -119 -4 -228 -10 -242
l-10 -26 -138 0 c-94 0 -142 4 -150 12 -9 9 -12 76 -12 242 l0 231 83 142 c45
78 156 270 247 427 90 157 165 284 167 283 1 -2 -38 -97 -87 -211 -58 -135
-90 -221 -90 -245 0 -35 1 -35 30 28 17 35 68 118 114 185 45 67 136 200 200
296 65 96 129 185 143 198 24 22 30 22 186 20 155 -3 162 -4 161 -23z"/>
</g>
</svg>
