<svg width="64" height="64" viewBox="0 0 64 64" fill="none" xmlns="http://www.w3.org/2000/svg">
<path d="M18.8009 37.657L13.144 43.3138L20.6865 50.8562L50.8563 20.6865L43.3139 13.144L37.6571 18.8009L41.4283 22.5721L37.6571 26.3433L33.8859 22.5721L30.1147 26.3433L33.8859 30.1146L30.1147 33.8858L26.3433 30.1146L22.5721 33.8858L26.3433 37.657L22.5721 41.4282L18.8009 37.657ZM45.1995 7.48713L56.5133 18.8009C57.5547 19.8422 57.5547 21.5307 56.5133 22.5721L22.5721 56.5133C21.5307 57.5546 19.8423 57.5546 18.8009 56.5133L7.48716 45.1994C6.44578 44.1581 6.44578 42.4696 7.48716 41.4282L41.4283 7.48713C42.4696 6.44574 44.1581 6.44574 45.1995 7.48713ZM37.6571 48.9693L41.4283 45.1981L47.4083 51.1781H51.1795V47.4069L45.1995 41.4269L48.9707 37.6557L55.9992 44.6842V55.9997H44.6875L37.6571 48.9693ZM15.0293 26.3416L7.48679 18.7992C6.4454 17.7578 6.4454 16.0693 7.48679 15.0279L15.0293 7.48545C16.0707 6.44406 17.7591 6.44406 18.8005 7.48545L26.343 15.0279L22.5717 18.7992L16.9149 13.1423L13.1436 16.9136L18.8005 22.5704L15.0293 26.3416Z" fill="black"/>
</svg>
