<svg width="64" height="64" viewBox="0 0 64 64" fill="none" xmlns="http://www.w3.org/2000/svg">
<path d="M32 53.3333C43.7821 53.3333 53.3333 43.7821 53.3333 32C53.3333 20.2179 43.7821 10.6666 32 10.6666C20.2179 10.6666 10.6667 20.2179 10.6667 32C10.6667 43.7821 20.2179 53.3333 32 53.3333ZM32 58.6666C17.2724 58.6666 5.33334 46.7274 5.33334 32C5.33334 17.2724 17.2724 5.33331 32 5.33331C46.7275 5.33331 58.6667 17.2724 58.6667 32C58.6667 46.7274 46.7275 58.6666 32 58.6666ZM32 42.6666C37.8909 42.6666 42.6667 37.8909 42.6667 32C42.6667 26.1089 37.8909 21.3333 32 21.3333C26.109 21.3333 21.3333 26.1089 21.3333 32C21.3333 37.8909 26.109 42.6666 32 42.6666ZM32 48C23.1634 48 16 40.8365 16 32C16 23.1634 23.1634 16 32 16C40.8365 16 48 23.1634 48 32C48 40.8365 40.8365 48 32 48ZM32 37.3333C29.0544 37.3333 26.6667 34.9456 26.6667 32C26.6667 29.0544 29.0544 26.6666 32 26.6666C34.9456 26.6666 37.3333 29.0544 37.3333 32C37.3333 34.9456 34.9456 37.3333 32 37.3333Z" fill="black"/>
</svg>
